# xmcd CD database file generated by Grip 2.96
# 
# Track frame offsets:
#       150
#       13390
#       26392
#       46985
#       59687
#       69475
# 
# Disc length: 1161 seconds
# 
# Revision: 0
# Processed by: cddbd v1.4PL0 Copyright (c) Steve Scherf et al.
# Submitted via: Grip 2.96
# 
DISCID=4f048706
DTITLE=Vetovoima - Vetovoima
DYEAR=1900
DGENRE=
TTITLE0=Olut on kaikki ryyp‰tty
TTITLE1=Naapurin poika
TTITLE2=Kaipuu
TTITLE3=Pihalla
TTITLE4=Jamaika
TTITLE5=Teerenpeliel‰m‰‰
EXTD=
EXTT0=
EXTT1=
EXTT2=
EXTT3=
EXTT4=
EXTT5=
PLAYORDER=
